<?xml version="1.0" encoding="utf-8"?>
<svg id="master-artboard" viewBox="0 0 280.4078063964844 247.8327178955078" version="1.1" xmlns="http://www.w3.org/2000/svg" x="0px" y="0px" width="280.4078063964844px" height="247.8327178955078px" enable-background="new 0 0 1400 980"><rect id="ee-background" x="0" y="0" width="280.4078063964844" height="247.8327178955078" style="fill: white; fill-opacity: 0; pointer-events: none;"/>


<g transform="matrix(1, 0, 0, 1, -86.4592056274414, -172.91842460632324)">
		<g>
			<path d="M341.5,376.3c0,2.8-2.2,5-5,5h-1.7c0.3-0.6,0.5-1.2,0.5-1.9c0-2.2-1.8-4-4-4h-24.4c-2.2,0-4,1.8-4,4&#10;&#9;&#9;&#9;&#9;c0,0.7,0.2,1.4,0.5,1.9h-88.7c0.3-0.6,0.5-1.2,0.5-1.9c0-2.2-1.8-4-4-4h-24.4c-2.1,0-3.8,1.6-4,3.6c-6.9-3.3-12-9.7-13.4-17.7&#10;&#9;&#9;&#9;&#9;l-5.5-16.2l-0.8-2.5l-0.4-1.1l-0.3-0.9c0-0.1,0-0.1-0.1-0.2l-0.5-1.6l-5.1-17.8l0.3-0.3l-2-6.5c-0.1,0.1-0.1,0.1-0.2,0.2&#10;&#9;&#9;&#9;&#9;l-0.6-2.1c0.1,0.1,0.2,0.3,0.4,0.4l-3.4-11.4L149,294l-0.8-2.6l0-0.1l-0.1-0.4l0-0.2l0-0.1l-0.1-0.3v0l-0.1-0.2L133,238.3&#10;&#9;&#9;&#9;&#9;l-9.1-31.9c0,0,0-0.1,0-0.1c-1.1-4.1-3.4-7.7-6.5-10.3c0.6-0.6,1.1-1.3,1.4-2.2l2.3-7.1c0-0.1,0.1-0.2,0.1-0.3&#10;&#9;&#9;&#9;&#9;c6,3.9,10.5,10,12.4,17.4l8.4,29.4l0.4,1.2l2.8,9.7l0.1,0.2h-0.6l4.6,15.3c-0.6,0.7-1.3,1.4-1.9,2.1l3.5,3.2l1.9,6.2l3.6,12.1v0&#10;&#9;&#9;&#9;&#9;l1.5,4.9l0.1,0.3l0.1,0.2l0.3,1.1l4.7,16.4l1.9,6.6l-0.7,0.7c0.4,0.4,0.9,0.9,1.3,1.3l0,0l3.3,11.6l1.2,4.1l0.4-0.4l0.6,2.2h3.8&#10;&#9;&#9;&#9;&#9;c0.3,0.3,0.6,0.6,1,0.9l0.9-0.9h115.7l0.9,0.9l0.9-0.9h29.5l0.2,0.2c0.1-0.1,0.1-0.2,0.2-0.2h4.4l0.8-2.9l8.1,8.1l-0.3,1&#10;&#9;&#9;&#9;&#9;c-0.5,1.8-1.9,3.1-3.7,3.6c-0.4,0.1-0.8,0.1-1.2,0.1h-47.9l0.1-0.1l-0.1-0.1l-0.2,0.2h-8l-0.2-0.2l-0.1,0.1l0.1,0.1h-21l0.1-0.1&#10;&#9;&#9;&#9;&#9;c-0.2-0.2-0.4-0.4-0.6-0.6c-0.2,0.2-0.4,0.4-0.7,0.7h-7.2c-0.2-0.2-0.4-0.4-0.6-0.6c-0.2,0.2-0.4,0.4-0.5,0.5l0.1,0.1h-21.9&#10;&#9;&#9;&#9;&#9;l0.1-0.1c-0.2-0.2-0.4-0.4-0.6-0.6l-0.7,0.7h-7.1c-0.2-0.2-0.5-0.4-0.7-0.7l-0.6,0.6l0.1,0.1h-20.9l0,0c-0.1-0.1-0.1-0.1-0.2-0.2&#10;&#9;&#9;&#9;&#9;l-0.2,0.2h-7.9c-0.1-0.1-0.2-0.2-0.3-0.3l-0.2,0.2l0.1,0.1h-10.9l5.5,16.1c0.1,0.3,0.2,0.5,0.2,0.8c1.1,7,7,12,14.1,12h143.3&#10;&#9;&#9;&#9;&#9;C339.2,371.3,341.5,373.5,341.5,376.3z"/>
		</g>
		<g>
			<path d="M165.3,314.9c-0.4-0.4-0.9-0.9-1.3-1.3l0.7-0.7L165.3,314.9z"/>
		</g>
		<g>
			<path d="M121,186.4c0,0.1-0.1,0.2-0.1,0.3l-2.3,7.1c-0.3,0.9-0.8,1.6-1.4,2.2c-3.4-2.9-7.9-4.5-12.6-4.5c-2.8,0-5-2.2-5-5&#10;&#9;&#9;&#9;&#9;s2.2-5,5-5C110.7,181.4,116.3,183.2,121,186.4z"/>
		</g>
		<g>
			<path d="M156.2,283.3L156.2,283.3l-3.6-12.1l-1.9-6.2l-3.5-3.2c0.6-0.7,1.3-1.4,1.9-2.1l-4.6-15.3h0.6l4.3,15l1.7,6l1.8,6.2l0,0&#10;&#9;&#9;&#9;&#9;L156.2,283.3L156.2,283.3l1.5,4.9L156.2,283.3z"/>
		</g>
		<g>
			<path d="M154.6,312.5c-0.1-0.1-0.3-0.3-0.4-0.4l0,0l-3.1-10.9l-2.1-7.3l-0.7-2.6l0.8,2.6l2.2,7.2L154.6,312.5z"/>
		</g>
		<g>
			<path d="M157,320.6l-0.3,0.3l-1.9-6.6c0.1-0.1,0.1-0.1,0.2-0.2L157,320.6z"/>
		</g>
		<g>
			<path d="M215.1,379.3c0,0.7-0.2,1.4-0.5,1.9h-21.4c-3.7,0-7.3-0.8-10.4-2.3c0.2-2,1.9-3.6,4-3.6h24.4&#10;&#9;&#9;&#9;&#9;C213.3,375.4,215.1,377.1,215.1,379.3z"/>
		</g>
		<g>
			<path d="M335.2,379.3c0,0.7-0.2,1.4-0.5,1.9h-31.4c-0.3-0.6-0.5-1.2-0.5-1.9c0-2.2,1.8-4,4-4h24.4&#10;&#9;&#9;&#9;&#9;C333.4,375.4,335.2,377.1,335.2,379.3z"/>
		</g>
	</g><g transform="matrix(1, 0, 0, 1, -86.4592056274414, -172.91842460632324)">
			<path d="M363.1,235.6c-0.9-1.2-2.3-1.9-3.9-2c0,0-0.1,0-0.1,0h0l-22.3,0.1h0l-7,0l-4.7,0l-2.8,0l-4.7,0l-17.3,0.1l-6.4,0l-1.2,0&#10;&#9;&#9;&#9;&#9;l-6.5,0l-11.9,0h0l-7.8,0l-3.1,0l-7.9,0l-12.5,0l-8,0h-1l-8.1,0l-12.4,0l-8.3,0l-2.5,0l-8.3,0l-11.2,0l-6.5,0h-2l-6.5,0l-26,0.1&#10;&#9;&#9;&#9;&#9;l2.8,9.7l0.1,0.2l3.6,0c0,0,0,0,0,0l8.5,0c0,0,0,0,0,0l7.2,0l8.6,0l5.1,0l8.4,0l8.5,0l8.5,0h0.5l8.4,0l2.2,0l10.1,0l8.5,0l2,0h0&#10;&#9;&#9;&#9;&#9;l8.4,0l12.5,0l8.3,0h0.2l8.2,0l9.5,0l8.5,0l4.3,0l8.4,0l8.5,0h0l8.5,0l5.8,0l8.5,0l1.8,0h0l6,0h1.1l8.3,0h0.2l-0.1,0.5l-0.3,1.3&#10;&#9;&#9;&#9;&#9;l-3.3,12.1l-1.8,6.7l-2.6,9.5l-2.4,8.8l-0.8,2.8v0l-1,3.8l-4.6,17.1l-1.8,6.7l-0.3,1.1l-3.3,12.1c0,0,0,0,0,0l-0.9,3.5l8.1,8.1&#10;&#9;&#9;&#9;&#9;L342,321l1.8-6.7l0.9-3.2l3.1-11.4l0.7-2.6l1.8-6.6l5.3-19.4v0l0.4-1.3v0l6.7-24.9l1.3-4.8C364.3,238.5,364,236.8,363.1,235.6z&#10;&#9;&#9;&#9;&#9; M323.8,332.3l0.2,0.2c0.1-0.1,0.2-0.2,0.2-0.2H323.8z M292.4,332.3l0.9,0.9l0.9-0.9H292.4z M276,342.1l-0.2,0.2l0.1,0.1h0.3&#10;&#9;&#9;&#9;&#9;L276,342.1z M284.5,342.1l-0.2,0.2h0.3l0.1-0.1L284.5,342.1z M245.9,341.7c-0.2,0.2-0.4,0.4-0.5,0.5l0.1,0.1h1.1&#10;&#9;&#9;&#9;&#9;C246.3,342.1,246.1,341.9,245.9,341.7z M254.4,341.6c-0.2,0.2-0.4,0.5-0.7,0.7h1.1l0.1-0.1C254.8,342,254.6,341.8,254.4,341.6z&#10;&#9;&#9;&#9;&#9; M214.5,341.6l-0.6,0.6l0.1,0.1h1.2C215,342.1,214.8,341.9,214.5,341.6z M223,341.6l-0.7,0.7h1.2l0.1-0.1&#10;&#9;&#9;&#9;&#9;C223.4,342,223.2,341.8,223,341.6z M184.5,342l-0.2,0.2l0.1,0.1h0.4C184.7,342.2,184.6,342.1,184.5,342z M193,342.1l-0.2,0.2h0.4&#10;&#9;&#9;&#9;&#9;l0,0C193.1,342.2,193,342.2,193,342.1z M174.7,332.3c0.3,0.3,0.6,0.6,1,0.9l0.9-0.9H174.7z M169.4,327.2l-3.5-11.8l-0.8-2.8&#10;&#9;&#9;&#9;&#9;l-2-6.5l-4.9-16.2l-0.3-1l0.3,1.1l4.7,16.4l1.9,6.6l-0.7,0.7c0.4,0.5,0.9,0.9,1.3,1.3l0,0l3.3,11.6l1.2,4.1l0.4-0.4L169.4,327.2z&#10;&#9;&#9;&#9;&#9; M149.1,259.7c-0.6,0.7-1.3,1.4-1.9,2l3.5,3.2L149.1,259.7z"/>
		</g><g transform="matrix(1, 0, 0, 1, -86.4592056274414, -172.91842460632324)">
			<path d="M362.4,238.7c0,3-2.5,5.5-5.5,5.5H145l-2.8-9.7l-0.4-1.2h215c0.8,0,1.6,0.2,2.3,0.5C361.1,234.5,362.4,236.4,362.4,238.7&#10;&#9;&#9;&#9;&#9;z"/>
		</g><g transform="matrix(1, 0, 0, 1, -86.4592056274414, -172.91842460632324)">
			<path d="M336.7,234.4v8.6c0,1.4,1.4,2.5,3.2,2.5h20.6c1.6,0,3-1,3.2-2.2l1.1-8.6c0.2-1.4-1.3-2.7-3.2-2.7h-21.7&#10;&#9;&#9;&#9;&#9;C338.1,231.9,336.7,233,336.7,234.4z"/>
		</g><g transform="matrix(1, 0, 0, 1, -86.4592056274414, -172.91842460632324)">
			<path d="M121,186.4c0,0.1-0.1,0.2-0.1,0.3l-2.3,7.1c-0.3,0.9-0.8,1.6-1.4,2.2c-1.2,1.2-3.1,1.7-4.8,1.2l-20.6-5.7&#10;&#9;&#9;&#9;&#9;c-2.8-0.8-4.4-3.7-3.5-6.5l2.2-6.7c0.8-2.5,3.5-4,6.1-3.3l20.6,5.3C120.1,180.9,121.7,183.7,121,186.4z"/>
		</g><g transform="matrix(1, 0, 0, 1, -86.4592056274414, -172.91842460632324)">
			<path d="M215.1,379.3c0,0.7-0.2,1.4-0.5,1.9c-0.6,1-1.5,1.7-2.7,2c-0.3,0-0.5,0.1-0.8,0.1h-24.4c-0.1,0-0.2,0-0.3,0&#10;&#9;&#9;&#9;&#9;c-2-0.2-3.7-1.9-3.7-4c0-0.1,0-0.3,0-0.4c0.2-2,1.9-3.6,4-3.6h24.4C213.3,375.4,215.1,377.1,215.1,379.3z"/>
		</g><g transform="matrix(1, 0, 0, 1, -86.4592056274414, -172.91842460632324)">
			<path d="M209.3,388.8c-2.7-2.8-6.2-4.8-10.2-5.5c-0.7-0.1-1.3-0.2-2-0.2c-0.3,0-0.6,0-0.9,0s-0.6,0-0.9,0c-0.7,0-1.4,0.1-2,0.2&#10;&#9;&#9;&#9;&#9;c-2.3,0.4-4.5,1.2-6.5,2.4c-5.1,3.2-8.6,8.8-8.6,15.3c0,9.9,8.1,18,18,18c10,0,18-8.1,18-18C214.2,396.3,212.3,392,209.3,388.8z&#10;&#9;&#9;&#9;&#9; M196.2,397.3c2.1,0,3.8,1.7,3.8,3.8c0,2.1-1.7,3.8-3.8,3.8c-2.1,0-3.8-1.7-3.8-3.8C192.3,399,194.1,397.3,196.2,397.3z&#10;&#9;&#9;&#9;&#9; M196.2,412.5c-6.3,0-11.4-5.1-11.4-11.4c0-3,1.2-5.8,3.1-7.8l1.3,8.4c0.5,3.5,3.5,6.1,7.1,6c1.3,0,2.6-0.4,3.7-1.1&#10;&#9;&#9;&#9;&#9;c1.1-0.7,2-1.7,2.5-2.9l3.7-8c0.9,1.6,1.4,3.5,1.4,5.4C207.5,407.4,202.5,412.5,196.2,412.5z"/>
		</g><g transform="matrix(1, 0, 0, 1, -86.4592056274414, -172.91842460632324)">
			<path d="M196.2,389.7c-3.3,0-6.2,1.4-8.3,3.6l1.3,8.4c0.5,3.5,3.5,6.1,7.1,6c1.3,0,2.6-0.4,3.7-1.1c1.1-0.7,2-1.7,2.5-2.9l3.7-8&#10;&#9;&#9;&#9;&#9;C204.2,392.1,200.5,389.7,196.2,389.7z M196.2,404.9c-2.1,0-3.8-1.7-3.8-3.8c0-2.1,1.7-3.8,3.8-3.8c2.1,0,3.8,1.7,3.8,3.8&#10;&#9;&#9;&#9;&#9;C200,403.2,198.3,404.9,196.2,404.9z"/>
		</g><g transform="matrix(1, 0, 0, 1, -86.4592056274414, -172.91842460632324)">
			<path d="M186.3,383.1l0,0.2l0.4,2.4l1.1,7.6l1.3,8.4c0.5,3.5,3.5,6.1,7.1,6c1.3,0,2.6-0.4,3.7-1.1c1.1-0.7,2-1.7,2.5-2.9l3.7-8&#10;&#9;&#9;&#9;&#9;l3.2-6.8l2.6-5.6l0.1-0.2H186.3z M196.2,404.9c-2.1,0-3.8-1.7-3.8-3.8c0-2.1,1.7-3.8,3.8-3.8c2.1,0,3.8,1.7,3.8,3.8&#10;&#9;&#9;&#9;&#9;C200,403.2,198.3,404.9,196.2,404.9z"/>
		</g><g transform="matrix(1, 0, 0, 1, -86.4592056274414, -172.91842460632324)">
			<path d="M335.2,379.3c0,0.7-0.2,1.4-0.5,1.9c-0.6,1-1.5,1.7-2.7,2c-0.3,0-0.5,0.1-0.8,0.1h-24.4c-0.1,0-0.2,0-0.3,0&#10;&#9;&#9;&#9;&#9;c-1.4-0.1-2.5-0.9-3.2-2c-0.3-0.6-0.5-1.2-0.5-1.9c0-2.2,1.8-4,4-4h24.4C333.4,375.4,335.2,377.1,335.2,379.3z"/>
		</g><g transform="matrix(1, 0, 0, 1, -86.4592056274414, -172.91842460632324)">
			<path d="M329.4,388.8c-2.7-2.8-6.2-4.8-10.2-5.5c-0.7-0.1-1.3-0.2-2-0.2c-0.3,0-0.6,0-0.9,0s-0.6,0-0.9,0c-0.7,0-1.4,0.1-2,0.2&#10;&#9;&#9;&#9;&#9;c-2.3,0.4-4.5,1.2-6.5,2.4c-5.2,3.2-8.6,8.8-8.6,15.3c0,9.9,8.1,18,18,18c10,0,18-8.1,18-18C334.3,396.3,332.4,392,329.4,388.8z&#10;&#9;&#9;&#9;&#9; M316.3,397.3c2.1,0,3.8,1.7,3.8,3.8c0,2.1-1.7,3.8-3.8,3.8c-2.1,0-3.8-1.7-3.8-3.8C312.5,399,314.2,397.3,316.3,397.3z&#10;&#9;&#9;&#9;&#9; M316.3,412.5c-6.3,0-11.4-5.1-11.4-11.4c0-3,1.2-5.8,3.1-7.8l1.3,8.4c0.5,3.5,3.5,6.1,7.1,6c1.3,0,2.6-0.4,3.7-1.1&#10;&#9;&#9;&#9;&#9;c1.1-0.7,2-1.7,2.6-2.9l3.7-8c0.9,1.6,1.4,3.5,1.4,5.4C327.6,407.4,322.5,412.5,316.3,412.5z"/>
		</g><g transform="matrix(1, 0, 0, 1, -86.4592056274414, -172.91842460632324)">
			<path d="M316.3,389.7c-3.3,0-6.2,1.4-8.3,3.6l1.3,8.4c0.5,3.5,3.5,6.1,7.1,6c1.3,0,2.6-0.4,3.7-1.1c1.1-0.7,2-1.7,2.6-2.9l3.7-8&#10;&#9;&#9;&#9;&#9;C324.3,392.1,320.6,389.7,316.3,389.7z M316.3,404.9c-2.1,0-3.8-1.7-3.8-3.8c0-2.1,1.7-3.8,3.8-3.8c2.1,0,3.8,1.7,3.8,3.8&#10;&#9;&#9;&#9;&#9;C320.1,403.2,318.4,404.9,316.3,404.9z"/>
		</g><g transform="matrix(1, 0, 0, 1, -86.4592056274414, -172.91842460632324)">
			<path d="M306.5,383.1l0,0.2l0.4,2.4l1.1,7.6l1.3,8.4c0.5,3.5,3.5,6.1,7.1,6c1.3,0,2.6-0.4,3.7-1.1c1.1-0.7,2-1.7,2.6-2.9l3.7-8&#10;&#9;&#9;&#9;&#9;l3.2-6.8l2.6-5.6l0.1-0.2H306.5z M316.3,404.9c-2.1,0-3.8-1.7-3.8-3.8c0-2.1,1.7-3.8,3.8-3.8c2.1,0,3.8,1.7,3.8,3.8&#10;&#9;&#9;&#9;&#9;C320.1,403.2,318.4,404.9,316.3,404.9z"/>
		</g><g transform="matrix(1, 0, 0, 1, -86.4592056274414, -172.91842460632324)">
			<g>
				<g>
					<path d="M 300.79998779296875 332.29998779296875 L 294.20001220703125 332.29998779296875 L 293.29998779296875 333.29998779296875 L 289.1000061035156 329 L 278 318 L 273.79998779296875 313.79998779296875 L 262.3999938964844 302.29998779296875 L 258.1000061035156 298.1000061035156 L 247.5 287.5 L 243.3000030517578 283.29998779296875 L 234.5 274.5 L 230.1999969482422 270.20001220703125 L 218.8000030517578 258.79998779296875 L 214.60000610351562 254.5 L 204.1999969482422 244.1999969482422 L 204.1999969482422 244.10000610351562 L 203.89999389648438 243.89999389648438 L 199.6999969482422 239.6999969482422 L 194.3000030517578 234.3000030517578 L 195.39999389648438 233.1999969482422 L 201.6999969482422 233.1999969482422 L 212.60000610351562 244.10000610351562 L 212.6999969482422 244.1999969482422 L 234.5 266 L 238.6999969482422 270.20001220703125 L 247.5 279 L 251.8000030517578 283.29998779296875 L 262.3999938964844 293.8999938964844 L 266.6000061035156 298.1000061035156 L 278 309.5 L 282.29998779296875 313.79998779296875 L 293.29998779296875 324.79998779296875 Z"/>
				</g>
			</g>
			<g>
				<g>
					<path d="M329.4,329.5l-0.8,2.9h-4.4c-0.1,0.1-0.2,0.2-0.2,0.2l-4.2-4.2L309,317.6l-4.2-4.2l-41.5-41.5l-4.2-4.2l-8.8-8.8&#10;&#9;&#9;&#9;&#9;&#9;&#9;l-24.5-24.5l0.2-0.2l1-1h6.2l0.9,0.9l0.5,0.5l4.2,4.2l5.2,5.2l10.5,10.5l8.8,8.8l4.2,4.2l10.6,10.6l4.2,4.2l11.5,11.5l4.2,4.2&#10;&#9;&#9;&#9;&#9;&#9;&#9;l11,11l4.2,4.2l10.7,10.7L329.4,329.5z"/>
				</g>
			</g>
			<g>
				<g>
					<path d="M342.7,313.1c0.4,0.4,0.8,0.8,1.1,1.1L342,321c-1.2-1.2-2.3-2.3-3.5-3.5c-1.4-1.4-2.8-2.8-4.2-4.2l-0.4-0.4&#10;&#9;&#9;&#9;&#9;&#9;&#9;c-3.4-3.4-6.7-6.7-10.1-10c-1.4-1.4-2.8-2.8-4.3-4.2c-2.4-2.4-4.8-4.8-7.2-7.2c-1.3-1.3-2.5-2.5-3.8-3.8&#10;&#9;&#9;&#9;&#9;&#9;&#9;c-1.4-1.4-2.8-2.8-4.3-4.2c-3.8-3.8-7.7-7.6-11.5-11.4c-1.4-1.4-2.8-2.8-4.2-4.2c-3.5-3.5-7.1-7-10.6-10.6&#10;&#9;&#9;&#9;&#9;&#9;&#9;c-1.4-1.4-2.8-2.8-4.2-4.3c-2.9-2.9-5.8-5.8-8.7-8.8c0,0-0.1-0.1-0.1-0.1c0,0-0.1,0-0.1-0.1c-1.4-1.4-2.8-2.8-4.1-4.2&#10;&#9;&#9;&#9;&#9;&#9;&#9;c-1.8-1.8-3.6-3.7-5.4-5.5l0.2-0.2l0.9-0.9h6.2c0.3,0.3,0.5,0.5,0.8,0.8c0.5,0.5,1,1,1.5,1.5c1.4,1.4,2.8,2.9,4.2,4.3&#10;&#9;&#9;&#9;&#9;&#9;&#9;c1.3,1.4,2.7,2.8,4.1,4.1l0.2,0.2c1.5,1.5,3,3,4.5,4.5c1.4,1.4,2.8,2.8,4.2,4.3c3.5,3.5,7.1,7.1,10.6,10.6l4.2,4.2&#10;&#9;&#9;&#9;&#9;&#9;&#9;c3.8,3.8,7.7,7.6,11.5,11.4c1.4,1.4,2.8,2.8,4.3,4.2c1.3,1.3,2.6,2.5,3.8,3.8c2.4,2.4,4.8,4.8,7.2,7.2c1.4,1.4,2.8,2.8,4.3,4.2&#10;&#9;&#9;&#9;&#9;&#9;&#9;c2.6,2.5,5.1,5.1,7.7,7.6c0.9,0.9,1.8,1.8,2.8,2.7C339.9,310.3,341.3,311.7,342.7,313.1z"/>
				</g>
			</g>
			<g>
				<g>
					<path d="M350.3,290.4l-1.8,6.6c-2.7-2.7-5.5-5.3-8.2-8c-0.5-0.5-0.9-0.9-1.4-1.4c-1.4-1.4-2.8-2.8-4.3-4.2&#10;&#9;&#9;&#9;&#9;&#9;&#9;c-3.7-3.7-7.4-7.4-11-11c-1.4-1.4-2.8-2.8-4.2-4.3c-2.1-2.1-4.2-4.2-6.3-6.3c-1.7-1.7-3.4-3.5-5.1-5.2&#10;&#9;&#9;&#9;&#9;&#9;&#9;c-1.4-1.4-2.8-2.8-4.2-4.3c-2.7-2.7-5.4-5.5-8.1-8.2c-0.1-0.1-0.2-0.2-0.3-0.3c-0.7-0.7-1.4-1.4-2.1-2.1&#10;&#9;&#9;&#9;&#9;&#9;&#9;c-1.4-1.4-2.8-2.8-4.2-4.2c-1.1-1.1-2.2-2.1-3.2-3.2l0.4-0.4l0.7-0.7h6.2c0,0,0.1,0.1,0.1,0.1c0.2,0.2,0.4,0.4,0.6,0.6&#10;&#9;&#9;&#9;&#9;&#9;&#9;c1.2,1.2,2.4,2.4,3.6,3.6c2.1,2.1,4.2,4.2,6.3,6.3c0.1,0.1,0.2,0.2,0.3,0.3c1.3,1.3,2.6,2.6,3.9,4c1.4,1.4,2.8,2.8,4.2,4.3&#10;&#9;&#9;&#9;&#9;&#9;&#9;c1.7,1.7,3.4,3.5,5.2,5.2c2.1,2.1,4.1,4.2,6.2,6.3c1.4,1.4,2.8,2.8,4.2,4.3c3.6,3.7,7.3,7.4,11,11c1.1,1.1,2.1,2.1,3.2,3.2&#10;&#9;&#9;&#9;&#9;&#9;&#9;c0.3,0.3,0.7,0.7,1,1C345.5,285.8,347.9,288.1,350.3,290.4z"/>
				</g>
			</g>
			<g>
				<g>
					<path d="M356.4,265l-2.6,2.6l-1.6,1.6c-0.5-0.5-1.1-1.1-1.7-1.7c-1.1-1.1-2.3-2.3-3.5-3.5c-2.5-2.5-5-5-7.6-7.6&#10;&#9;&#9;&#9;&#9;&#9;&#9;c-1.4-1.4-2.8-2.8-4.2-4.2c-2.7-2.7-5.5-5.5-8.2-8.2c-0.1-0.1-0.2-0.3-0.4-0.4c-1-1-1.9-1.9-2.9-2.9l-4.2-4.2&#10;&#9;&#9;&#9;&#9;&#9;&#9;c-0.8-0.8-1.6-1.6-2.4-2.4l1.1-1.1h4.7l0.8-0.8l0.8,0.8c0.2,0.2,0.4,0.4,0.6,0.6c1,0.9,1.9,1.9,2.9,2.9&#10;&#9;&#9;&#9;&#9;&#9;&#9;c2.4,2.4,4.7,4.7,7.1,7.1c0.1,0.1,0.3,0.3,0.4,0.4c1.3,1.3,2.6,2.6,4,4c1.4,1.4,2.8,2.8,4.2,4.2c1.7,1.7,3.4,3.4,5.1,5.1&#10;&#9;&#9;&#9;&#9;&#9;&#9;C351.4,260,353.9,262.5,356.4,265z"/>
				</g>
			</g>
			<g>
				<g>
					<path d="M 339.5 236.600006 H 346.6 V 242.600006 H 339.5 V 236.600006 Z" transform="matrix(0.7071 0.7071 -0.7071 0.7071 269.9249 -172.4269)"/>
				</g>
			</g>
			<g>
				<g>
					<path d="M154.6,312.5c-0.1-0.1-0.3-0.3-0.4-0.4l0,0l-3.1-10.9l0.1-0.1L154.6,312.5z"/>
				</g>
				<g>
					<path d="M183.3,332.3h-6.7l-0.9,0.9c-0.3-0.3-0.6-0.6-1-0.9c-1.1-1.1-2.2-2.2-3.3-3.2c-0.3-0.3-0.6-0.6-0.9-0.9&#10;&#9;&#9;&#9;&#9;&#9;&#9;c-0.3-0.3-0.7-0.7-1.1-1c-0.2-0.2-0.5-0.4-0.7-0.7l-3.3-11.6c0.2,0.2,0.3,0.3,0.5,0.5c2.9,2.9,5.9,5.7,8.8,8.5&#10;&#9;&#9;&#9;&#9;&#9;&#9;c0.3,0.3,0.7,0.6,1,1c1.4,1.4,2.9,2.8,4.3,4.2C181,330.1,182.2,331.2,183.3,332.3z"/>
				</g>
				<g>
					<path d="M193.2,342.3L193.2,342.3l-0.4,0l0.2-0.2C193,342.2,193.1,342.2,193.2,342.3z"/>
				</g>
			</g>
			<g>
				<g>
					<path d="M213.7,332.3h-8.5c-0.4-0.4-0.8-0.8-1.3-1.3c-1.4-1.4-2.8-2.8-4.2-4.2c-2.9-2.9-5.9-5.9-8.8-8.8&#10;&#9;&#9;&#9;&#9;&#9;&#9;c-1.4-1.4-2.8-2.8-4.2-4.2c-3.8-3.8-7.6-7.6-11.5-11.5c-1.4-1.4-2.8-2.8-4.2-4.2c-3.5-3.5-7-7-10.5-10.5&#10;&#9;&#9;&#9;&#9;&#9;&#9;c-1.4-1.4-2.8-2.8-4.1-4.1c0,0-0.1-0.1-0.1-0.1v0l-3.6-12.1c0.1,0.1,0.2,0.2,0.3,0.3l0,0c2.5,2.5,5,5,7.5,7.5&#10;&#9;&#9;&#9;&#9;&#9;&#9;c1.4,1.4,2.8,2.8,4.2,4.2l10.5,10.5c1.4,1.4,2.8,2.8,4.2,4.2c3.8,3.8,7.6,7.6,11.5,11.5c1.4,1.4,2.8,2.8,4.2,4.2&#10;&#9;&#9;&#9;&#9;&#9;&#9;c2.9,2.9,5.9,5.9,8.8,8.8c1.4,1.4,2.8,2.8,4.2,4.2C210,328.7,211.9,330.5,213.7,332.3z"/>
				</g>
				<g>
					<path d="M223.6,342.2L223.6,342.2l-1.3,0.1l0.7-0.7C223.2,341.8,223.4,342,223.6,342.2z"/>
				</g>
			</g>
			<g>
				<g>
					<path d="M244.9,332.3h-8.5l-2-2c-1.4-1.4-2.8-2.8-4.2-4.2c-3.5-3.5-7.1-7.1-10.6-10.6c-1.4-1.4-2.8-2.8-4.2-4.3&#10;&#9;&#9;&#9;&#9;&#9;&#9;c-2.9-3-5.9-5.9-8.8-8.9c-1.4-1.4-2.8-2.8-4.2-4.3c-1.3-1.3-2.6-2.6-3.9-3.9c-2.5-2.5-5-5.1-7.5-7.6c-1.4-1.4-2.8-2.8-4.2-4.3&#10;&#9;&#9;&#9;&#9;&#9;&#9;c-3.5-3.5-7-7.1-10.5-10.6c-1.4-1.4-2.8-2.8-4.2-4.2c-3.7-3.7-7.5-7.5-11.2-11.2c-1.4-1.4-2.8-2.8-4.3-4.2&#10;&#9;&#9;&#9;&#9;&#9;&#9;c-2.6-2.6-5.2-5.2-7.8-7.7c0,0,0,0,0,0c-0.1-0.1-0.1-0.2-0.2-0.2c-0.4-0.4-0.8-0.8-1.2-1.1l4.2-4.3c1.8,1.8,3.7,3.6,5.5,5.4&#10;&#9;&#9;&#9;&#9;&#9;&#9;c0.1,0.1,0.1,0.1,0.2,0.2c0,0,0,0,0,0c1.2,1.2,2.4,2.3,3.6,3.5c1.4,1.4,2.8,2.8,4.3,4.2c3.7,3.7,7.5,7.4,11.2,11.2&#10;&#9;&#9;&#9;&#9;&#9;&#9;c1.4,1.4,2.8,2.8,4.2,4.2c3.5,3.5,7,7.1,10.5,10.6c1.4,1.4,2.8,2.8,4.2,4.3c2.5,2.6,5,5.1,7.5,7.6c1.3,1.3,2.6,2.6,3.9,3.9&#10;&#9;&#9;&#9;&#9;&#9;&#9;c1.4,1.4,2.8,2.8,4.2,4.3c2.9,2.9,5.8,5.9,8.8,8.9c1.4,1.4,2.8,2.8,4.2,4.3c3.5,3.5,7,7.1,10.6,10.6c1.4,1.4,2.8,2.8,4.2,4.2&#10;&#9;&#9;&#9;&#9;&#9;&#9;C240.7,328.2,242.8,330.3,244.9,332.3z"/>
				</g>
				<g>
					<path d="M255,342.2L255,342.2l-1.2,0.1c0.2-0.2,0.4-0.4,0.7-0.7C254.6,341.8,254.8,342,255,342.2z"/>
				</g>
			</g>
			<g>
				<g>
					<path d="M 274.70001220703125 332.29998779296875 L 266.20001220703125 332.29998779296875 L 265 331.1000061035156 L 260.79998779296875 326.79998779296875 L 249.3000030517578 315.3999938964844 L 245.10000610351562 311.1000061035156 L 234.5 300.6000061035156 L 230.1999969482422 296.29998779296875 L 221.39999389648438 287.5 L 217.1999969482422 283.29998779296875 L 205.6999969482422 271.79998779296875 L 190.89999389648438 257 L 186.6999969482422 252.6999969482422 L 178.1999969482422 244.3000030517578 L 178.10000610351562 244.10000610351562 L 171.39999389648438 237.5 L 168.1999969482422 234.3000030517578 L 168.1999969482422 234.3000030517578 L 169.3000030517578 233.1999969482422 L 175.60000610351562 233.1999969482422 L 186.5 244.10000610351562 L 186.60000610351562 244.1999969482422 L 190.89999389648438 248.5 L 195.10000610351562 252.6999969482422 L 205.6999969482422 263.29998779296875 L 210 267.6000061035156 L 221.39999389648438 279 L 225.6999969482422 283.29998779296875 L 234.5 292.1000061035156 L 238.6999969482422 296.29998779296875 Z"/>
				</g>
				<g>
					<path d="M 284.6000061035156 342.20001220703125 L 284.5 342.29998779296875 L 284.20001220703125 342.29998779296875 L 284.5 342.1000061035156 Z"/>
				</g>
			</g>
		</g><g transform="matrix(1, 0, 0, 1, -86.4592056274414, -172.91842460632324)">
				<g>
					<path d="M274.7,234.3l-5.5,5.5L265,244l-10.6,10.6l-4.2,4.2l-11.5,11.5l-4.2,4.2l-8.8,8.8l-4.2,4.2l-14.9,14.9l-11.4,11.4&#10;&#9;&#9;&#9;&#9;&#9;&#9;l-4.2,4.2l-15.2,15.2c-0.3-0.3-0.6-0.6-1-0.9h-3.8l-0.6-2.2l1.1-1.1l4.2-4.2l11.1-11.1l4.2-4.2l11.4-11.4l4.2-4.2l10.6-10.6&#10;&#9;&#9;&#9;&#9;&#9;&#9;l4.2-4.2l8.8-8.8l4.2-4.2l11.5-11.5l4.2-4.2l6.1-6.2l0.1-0.1l4.2-4.2l4.2-4.2l2.4-2.4h6.2L274.7,234.3z"/>
				</g>
			</g><g transform="matrix(1, 0, 0, 1, -86.4592056274414, -172.91842460632324)">
					<path d="M157,320.6l-0.3,0.3l-1.9-6.6c0.1-0.1,0.1-0.1,0.2-0.2L157,320.6z"/>
				</g><path d="M243.3,234.3l-4.6,4.6c-1.4,1.4-2.8,2.8-4.2,4.2c-0.3,0.3-0.7,0.7-1,1c0,0,0,0-0.1,0.1l-14.6,14.6&#10;&#9;&#9;&#9;&#9;&#9;&#9;c-2.9,2.9-5.9,5.9-8.8,8.8c-1.4,1.4-2.8,2.8-4.2,4.2c-3.5,3.5-7,7-10.5,10.5c-1.4,1.4-2.8,2.8-4.2,4.2&#10;&#9;&#9;&#9;&#9;&#9;&#9;c-3.8,3.8-7.7,7.7-11.5,11.5c-1.4,1.4-2.8,2.8-4.2,4.2c-3.4,3.4-6.8,6.8-10.2,10.2c-0.1,0.1-0.2,0.2-0.2,0.2l-1.9-6.6l0.2-0.2&#10;&#9;&#9;&#9;&#9;&#9;&#9;c2.6-2.6,5.3-5.3,7.9-7.9c1.4-1.4,2.8-2.8,4.2-4.2c3.8-3.8,7.7-7.7,11.5-11.5c1.4-1.4,2.8-2.8,4.2-4.2c3.5-3.5,7-7,10.5-10.5&#10;&#9;&#9;&#9;&#9;&#9;&#9;c1.4-1.4,2.8-2.8,4.2-4.2c2.9-2.9,5.9-5.9,8.8-8.8c1.4-1.4,2.8-2.8,4.2-4.2c2.1-2.1,4.1-4.1,6.2-6.2c0,0,0,0,0,0&#10;&#9;&#9;&#9;&#9;&#9;&#9;c1.8-1.8,3.5-3.5,5.3-5.3c1.4-1.4,2.8-2.8,4.2-4.2c0.2-0.2,0.3-0.3,0.5-0.5l0.9-0.9h6.2l0.9,0.9L243.3,234.3z" transform="matrix(1, 0, 0, 1, -86.4592056274414, -172.91842460632324)"/><g transform="matrix(1, 0, 0, 1, -86.4592056274414, -172.91842460632324)">
					<path d="M 149 294 L 148.89999389648438 293.8999938964844 L 148.1999969482422 291.29998779296875 Z"/>
				</g><path d="M213.6,234.3c-1.8,1.8-3.6,3.6-5.4,5.4c-1.4,1.4-2.8,2.8-4.2,4.2c-0.1,0.1-0.2,0.1-0.2,0.2c0,0,0,0,0,0&#10;&#9;&#9;&#9;&#9;&#9;&#9;c-2.9,2.8-5.7,5.7-8.6,8.5c-1.4,1.4-2.8,2.8-4.2,4.2c-2.9,2.9-5.8,5.8-8.6,8.7c-0.6,0.6-1.2,1.2-1.8,1.8&#10;&#9;&#9;&#9;&#9;&#9;&#9;c-1.4,1.4-2.8,2.8-4.2,4.3c-3.8,3.8-7.7,7.7-11.6,11.6c-1.4,1.4-2.8,2.8-4.2,4.2c-0.8,0.8-1.5,1.5-2.3,2.3c0,0,0,0,0,0&#10;&#9;&#9;&#9;&#9;&#9;&#9;l-0.3-1.1l-0.1-0.2l-0.1-0.3l-1.5-4.9v0c0,0,0,0,0,0c1.4-1.4,2.8-2.8,4.2-4.2c3.9-3.9,7.7-7.8,11.6-11.6&#10;&#9;&#9;&#9;&#9;&#9;&#9;c1.4-1.4,2.8-2.8,4.2-4.3c0.6-0.6,1.2-1.2,1.8-1.8c2.9-2.9,5.7-5.8,8.6-8.7c1.4-1.4,2.8-2.8,4.2-4.2c1.4-1.4,2.9-2.9,4.3-4.3&#10;&#9;&#9;&#9;&#9;&#9;&#9;c0,0,0,0,0.1-0.1c1.5-1.5,3-3,4.5-4.5c1.4-1.4,2.8-2.8,4.2-4.2c0.4-0.4,0.8-0.8,1.3-1.3c0.3-0.3,0.7-0.7,1-1h6.3l1,1&#10;&#9;&#9;&#9;&#9;&#9;&#9;L213.6,234.3z" transform="matrix(1, 0, 0, 1, -86.4592056274414, -172.91842460632324)"/><g transform="matrix(1, 0, 0, 1, -86.4592056274414, -172.91842460632324)">
					<path d="M183.2,234.3c-1.1,1.1-2.1,2.2-3.2,3.3c-1.4,1.4-2.8,2.8-4.3,4.2c-0.8,0.8-1.6,1.6-2.5,2.4c0,0-0.1,0.1-0.1,0.1&#10;&#9;&#9;&#9;&#9;&#9;&#9;c-1,1-1.9,1.9-2.9,2.8c-1.7,1.6-3.4,3.3-5.1,5c-1.4,1.4-2.8,2.8-4.3,4.2c-3.1,3.1-6.2,6.3-9.2,9.5l-0.5-0.4l-0.4-0.4l-3.5-3.2&#10;&#9;&#9;&#9;&#9;&#9;&#9;c0.6-0.7,1.3-1.4,1.9-2.1c0.1-0.1,0.2-0.2,0.3-0.3c2.3-2.5,4.7-4.9,7.1-7.3c1.4-1.4,2.8-2.8,4.3-4.2c1.2-1.2,2.4-2.4,3.6-3.6&#10;&#9;&#9;&#9;&#9;&#9;&#9;c0.1-0.1,0.1-0.1,0.2-0.2c0.5-0.4,0.9-0.9,1.4-1.3c1.8-1.7,3.6-3.5,5.5-5.3c1.1-1.1,2.2-2.1,3.3-3.2c0.3-0.3,0.7-0.7,1-1&#10;&#9;&#9;&#9;&#9;&#9;&#9;c0-0.1,0.1-0.1,0.1-0.1h6.2L183.2,234.3z"/>
				</g><g transform="matrix(1, 0, 0, 1, -86.4592056274414, -172.91842460632324)">
					<path d="M347.8,299.6l-3.1,11.4c-0.7,0.7-1.3,1.4-2,2c-1.4,1.4-2.8,2.9-4.2,4.3c-1.8,1.9-3.6,3.7-5.4,5.6c-0.9,1-1.9,2-2.8,3&#10;&#9;&#9;&#9;&#9;&#9;&#9;c0,0,0,0,0,0c-0.7,0.7-1.4,1.5-2.2,2.2c-1.3,1.4-2.6,2.7-3.9,4.1c-0.1,0.1-0.2,0.2-0.2,0.2l-0.2-0.2h-7.9&#10;&#9;&#9;&#9;&#9;&#9;&#9;c1.3-1.3,2.6-2.7,3.9-4c1.4-1.4,2.8-2.9,4.2-4.3c1.6-1.7,3.3-3.4,4.9-5.1c1.6-1.6,3.2-3.3,4.8-5c0.2-0.2,0.5-0.5,0.7-0.7&#10;&#9;&#9;&#9;&#9;&#9;&#9;c1.4-1.4,2.8-2.9,4.2-4.3C341.5,305.8,344.6,302.7,347.8,299.6z"/>
				</g><g transform="matrix(1, 0, 0, 1, -86.4592056274414, -172.91842460632324)">
					<path d="M 276.20001220703125 342.29998779296875 L 275.8999938964844 342.29998779296875 L 275.8999938964844 342.20001220703125 L 276 342.1000061035156 Z"/>
				</g><path d="M 356.3999938964844 270.20001220703125 L 323.79998779296875 302.79998779296875 L 313.20001220703125 313.29998779296875 L 309 317.6000061035156 L 297.5 329 L 294.20001220703125 332.29998779296875 L 293.29998779296875 333.29998779296875 L 292.3999938964844 332.29998779296875 L 285.79998779296875 332.29998779296875 L 289.1000061035156 329 L 293.29998779296875 324.79998779296875 L 304.79998779296875 313.29998779296875 L 309 309.1000061035156 L 323.79998779296875 294.29998779296875 L 334.6000061035156 283.3999938964844 L 338.8999938964844 279.20001220703125 L 344.5 273.6000061035156 L 350.5 267.6000061035156 L 352.1000061035156 266 Z" transform="matrix(1, 0, 0, 1, -86.4592056274414, -172.91842460632324)"/><g transform="matrix(1, 0, 0, 1, -86.4592056274414, -172.91842460632324)">
					<path d="M246.5,342.3h-1.1l-0.1-0.1c0.2-0.2,0.4-0.4,0.5-0.5C246.1,341.9,246.3,342.1,246.5,342.3z"/>
				</g><path d="M356.4,239.6l-4.1,4.1c-0.2,0.2-0.3,0.3-0.5,0.5c-0.4,0.4-0.8,0.8-1.3,1.3c-2.3,2.3-4.6,4.6-6.9,6.9&#10;&#9;&#9;&#9;&#9;&#9;&#9;c-1.4,1.4-2.8,2.8-4.2,4.2c-3.9,3.9-7.7,7.7-11.6,11.6c-1.4,1.4-2.8,2.8-4.2,4.2c-3.7,3.7-7.3,7.3-11,11&#10;&#9;&#9;&#9;&#9;&#9;&#9;c-1.4,1.4-2.8,2.8-4.2,4.2c-3.5,3.5-7,7-10.5,10.5c-1.4,1.4-2.8,2.8-4.2,4.2c-3.8,3.8-7.6,7.6-11.5,11.5&#10;&#9;&#9;&#9;&#9;&#9;&#9;c-1.4,1.4-2.8,2.8-4.2,4.2c-2.9,2.9-5.9,5.9-8.8,8.8c-1.4,1.4-2.8,2.8-4.2,4.2c-0.4,0.4-0.8,0.8-1.3,1.3h-8.5&#10;&#9;&#9;&#9;&#9;&#9;&#9;c1.8-1.8,3.7-3.7,5.5-5.5c1.4-1.4,2.8-2.8,4.2-4.2c2.9-2.9,5.9-5.9,8.8-8.8c1.4-1.4,2.8-2.8,4.2-4.2c3.8-3.8,7.6-7.6,11.5-11.5&#10;&#9;&#9;&#9;&#9;&#9;&#9;c1.4-1.4,2.8-2.8,4.2-4.2c3.5-3.5,7-7,10.5-10.5c1.4-1.4,2.8-2.8,4.2-4.2c3.7-3.7,7.3-7.3,11-11c1.4-1.4,2.8-2.8,4.2-4.2&#10;&#9;&#9;&#9;&#9;&#9;&#9;c3.9-3.9,7.7-7.7,11.6-11.6c1.4-1.4,2.8-2.8,4.2-4.2c0.9-0.9,1.8-1.8,2.7-2.7c0.4-0.4,0.8-0.8,1.2-1.2c0,0,0,0,0,0&#10;&#9;&#9;&#9;&#9;&#9;&#9;c0.1-0.1,0.3-0.3,0.4-0.4c1.3-1.2,2.5-2.5,3.8-3.8c1.5-1.5,3-3,4.6-4.5L356.4,239.6z" transform="matrix(1, 0, 0, 1, -86.4592056274414, -172.91842460632324)"/><g transform="matrix(1, 0, 0, 1, -86.4592056274414, -172.91842460632324)">
					<path d="M215.2,342.3H214l-0.1-0.1l0.6-0.6C214.8,341.9,215,342.1,215.2,342.3z"/>
				</g><path d="M 330.3999938964844 234.3000030517578 L 323.79998779296875 240.89999389648438 L 320.8999938964844 243.8000030517578 L 320.5 244.10000610351562 L 312.29998779296875 252.39999389648438 L 308.1000061035156 256.6000061035156 L 296.8999938964844 267.70001220703125 L 282.29998779296875 282.3999938964844 L 278 286.6000061035156 L 266.6000061035156 298.1000061035156 L 262.3999938964844 302.29998779296875 L 253.5 311.1000061035156 L 249.3000030517578 315.3999938964844 L 238.60000610351562 326.1000061035156 L 234.39999389648438 330.29998779296875 L 232.3000030517578 332.29998779296875 L 223.89999389648438 332.29998779296875 L 230.10000610351562 326.1000061035156 L 234.39999389648438 321.79998779296875 L 245.10000610351562 311.1000061035156 L 249.3000030517578 306.8999938964844 L 258.1000061035156 298.1000061035156 L 262.3999938964844 293.8999938964844 L 273.79998779296875 282.3999938964844 L 278 278.20001220703125 L 288.5 267.70001220703125 L 292.70001220703125 263.5 L 308.1000061035156 248.10000610351562 L 312.1000061035156 244.10000610351562 L 323.79998779296875 232.39999389648438 L 324.6000061035156 233.1999969482422 L 329.29998779296875 233.1999969482422 Z" transform="matrix(1, 0, 0, 1, -86.4592056274414, -172.91842460632324)"/><g transform="matrix(1, 0, 0, 1, -86.4592056274414, -172.91842460632324)">
					<path d="M184.8,342.3h-0.4l-0.1-0.1l0.2-0.2C184.6,342.1,184.7,342.2,184.8,342.3z"/>
				</g><path d="M 300.79998779296875 234.3000030517578 L 297.6000061035156 237.5 L 293.29998779296875 241.6999969482422 L 291.20001220703125 243.89999389648438 L 277.8999938964844 257.20001220703125 L 267.5 267.6000061035156 L 263.20001220703125 271.79998779296875 L 251.8000030517578 283.29998779296875 L 247.5 287.5 L 238.6999969482422 296.29998779296875 L 234.5 300.6000061035156 L 223.8000030517578 311.29998779296875 L 219.60000610351562 315.5 L 208.1999969482422 326.79998779296875 L 204 331.1000061035156 L 202.6999969482422 332.29998779296875 L 194.1999969482422 332.29998779296875 L 230.1999969482422 296.29998779296875 L 234.5 292.1000061035156 L 243.3000030517578 283.29998779296875 L 247.5 279 L 259 267.6000061035156 L 263.20001220703125 263.29998779296875 L 282.70001220703125 243.89999389648438 L 289.1000061035156 237.5 L 292.70001220703125 233.89999389648438 L 293.3999938964844 233.1999969482422 L 299.70001220703125 233.1999969482422 Z" transform="matrix(1, 0, 0, 1, -86.4592056274414, -172.91842460632324)"/>





</svg>